# xmcd
#
# Track frame offsets:
#	150
#	2453
#	58553
#	112103
#	167453
#	223403
#	280103
#
# Disc length: 4424 seconds
#
# Revision: 1
# Processed by: cddbd v1.5.2PL0 Copyright (c) Steve Scherf et al.
# Submitted via: audiograbber 1.83.01
#
DISCID=5c114607
DTITLE=Thomas Mac Pfeifer - Was macht ein Piguin am Nordpol CD1
DYEAR=2005
DGENRE=Kind
TTITLE0=Ri Ru Raun Karaoke
TTITLE1=TV-Talkshow mit Teddy Tonlos
TTITLE2=Warum Rosita Pepta so kleinkariert ist
TTITLE3=Dicmac, das Hängebauchschwein
TTITLE4=Wie viele Beine hat ein Tausendfüßler?
TTITLE5=Naseputzen bei Tisch verboten
TTITLE6=Ulrike Unkrauts Geheimnis
EXTD=
EXTT0=
EXTT1=
EXTT2=
EXTT3=
EXTT4=
EXTT5=
EXTT6=
PLAYORDER=
